<svg 
	style="transition: .2s" 
	enable-background="new 0 0 24 24" height="512" 
	viewBox="0 0 24 24" 
	width="512" xmlns="http://www.w3.org/2000/svg"

	>
	<path fill="white" d="m22.25 4h-16.5c-.246 0-.478.121-.617.324l-5 7.25c-.177.256-.177.596 0 .852l5 7.25c.139.203.371.324.617.324h16.5c.965 0 1.75-.785 1.75-1.75v-12.5c0-.965-.785-1.75-1.75-1.75zm-1.541 10.828c.388.391.388 1.023 0 1.414-.194.195-.448.293-.702.293s-.508-.098-.702-.293l-2.805-2.828-2.806 2.828c-.194.195-.448.293-.702.293s-.508-.098-.702-.293c-.388-.391-.388-1.023 0-1.414l2.807-2.828-2.806-2.828c-.388-.391-.388-1.023 0-1.414s1.016-.391 1.403 0l2.806 2.828 2.806-2.828c.388-.391 1.016-.391 1.403 0 .388.391.388 1.023 0 1.414l-2.806 2.828z"/></svg>
	