<?xml version="1.0" encoding="utf-8"?><svg viewBox="0 0 84 84" xmlns="http://www.w3.org/2000/svg" xmlns:xlink="http://www.w3.org/1999/xlink"><style>:root>svg{display:none}:root>svg:target{display:block}</style><svg viewBox="0 0 13 13" id="arrow" xmlns="http://www.w3.org/2000/svg"><path d="M9.939 5.856L4.349.266A.91.91 0 103.06 1.555L8.007 6.5l-4.946 4.946a.91.91 0 001.288 1.287l5.59-5.59a.907.907 0 000-1.287z"/></svg><svg fill="none" viewBox="0 0 13 7" id="arrow-down" xmlns="http://www.w3.org/2000/svg"><path d="M5.856 6.748l-5.59-5.28a.826.826 0 010-1.216.949.949 0 011.288 0L6.5 4.924 11.446.252a.949.949 0 011.287 0 .827.827 0 010 1.216l-5.59 5.28A.935.935 0 016.5 7a.936.936 0 01-.644-.252z" fill="#2F675C"/></svg><svg viewBox="0 0 11 13" id="calculator" xmlns="http://www.w3.org/2000/svg"><path d="M9.9 0H1.1C.493 0 0 .493 0 1.1v10.316c0 .606.493 1.1 1.1 1.1h8.8c.607 0 1.1-.494 1.1-1.1V1.1C11 .493 10.507 0 9.9 0zm.367 11.416a.367.367 0 01-.367.366H1.1a.367.367 0 01-.367-.366V1.1c0-.202.165-.367.367-.367h8.8c.202 0 .367.165.367.367v10.316z"/><path d="M9.167 1.467H1.833a.367.367 0 00-.366.366v2.983c0 .202.164.366.366.366h7.334a.367.367 0 00.366-.366V1.833a.367.367 0 00-.366-.366zM8.8 4.449H2.2V2.2h6.6v2.249zM3.3 5.916H1.833a.367.367 0 00-.366.366V7.75c0 .202.164.367.366.367H3.3a.367.367 0 00.367-.367V6.282a.367.367 0 00-.367-.366zm-.367 1.466H2.2V6.65h.733v.733zM3.3 8.849H1.833a.367.367 0 00-.366.367v1.466c0 .203.164.367.366.367H3.3a.367.367 0 00.367-.367V9.216a.367.367 0 00-.367-.367zm-.367 1.466H2.2v-.733h.733v.733zM6.233 5.916H4.767a.367.367 0 00-.367.366V7.75c0 .202.164.367.367.367h1.466a.367.367 0 00.367-.367V6.282a.367.367 0 00-.367-.366zm-.366 1.466h-.734V6.65h.734v.733zM6.233 8.849H4.767a.367.367 0 00-.367.367v1.466c0 .203.164.367.367.367h1.466a.367.367 0 00.367-.367V9.216a.367.367 0 00-.367-.367zm-.366 1.466h-.734v-.733h.734v.733zM9.167 5.916H7.7a.367.367 0 00-.367.366v4.4c0 .203.164.367.367.367h1.467a.367.367 0 00.366-.367v-4.4a.367.367 0 00-.366-.366zm-.367 4.4h-.733V6.649H8.8v3.667z"/></svg><svg fill="none" viewBox="0 0 11 11" id="calendar" xmlns="http://www.w3.org/2000/svg"><path d="M9.821 1.179H8.643V.393a.393.393 0 10-.786 0v.786H3.143V.393a.393.393 0 10-.786 0v.786H1.18C.528 1.179 0 1.706 0 2.357v7.464C0 10.472.528 11 1.179 11H9.82C10.472 11 11 10.472 11 9.821V2.357c0-.65-.528-1.178-1.179-1.178zm.393 8.642a.393.393 0 01-.393.393H1.18a.393.393 0 01-.393-.393V4.714h9.428v5.107zm0-5.892H.786V2.357c0-.217.176-.393.393-.393h1.178v.786a.393.393 0 10.786 0v-.786h4.714v.786a.393.393 0 10.786 0v-.786H9.82c.217 0 .393.176.393.393V3.93z" fill="#000"/><path d="M3.143 5.5h-.786a.393.393 0 100 .786h.786a.393.393 0 100-.786zM5.893 5.5h-.786a.393.393 0 100 .786h.786a.393.393 0 000-.786zM8.643 5.5h-.786a.393.393 0 100 .786h.786a.393.393 0 100-.786zM3.143 7.071h-.786a.393.393 0 100 .786h.786a.393.393 0 100-.786zM5.893 7.071h-.786a.393.393 0 100 .786h.786a.393.393 0 000-.786zM8.643 7.071h-.786a.393.393 0 100 .786h.786a.393.393 0 100-.786zM3.143 8.643h-.786a.393.393 0 100 .786h.786a.393.393 0 100-.786zM5.893 8.643h-.786a.393.393 0 100 .786h.786a.393.393 0 000-.786zM8.643 8.643h-.786a.393.393 0 100 .786h.786a.393.393 0 100-.786z" fill="#000"/></svg><svg viewBox="0 0 14 17" id="cart" xmlns="http://www.w3.org/2000/svg"><path d="M13.604 14.695L12.63 3.734a.469.469 0 00-.466-.428h-2.002A3.361 3.361 0 006.803 0a3.361 3.361 0 00-3.358 3.306H1.443a.466.466 0 00-.466.428L.003 14.695 0 14.737C0 15.985 1.144 17 2.552 17h8.503c1.408 0 2.552-1.015 2.552-2.263 0-.014 0-.028-.003-.042zM6.804.94a2.422 2.422 0 012.42 2.367h-4.84A2.422 2.422 0 016.804.94zm4.251 15.122H2.552c-.883 0-1.6-.584-1.613-1.303l.931-10.51h1.572v1.426c0 .26.208.469.469.469.26 0 .47-.209.47-.47V4.249h4.842v1.426c0 .26.209.469.47.469.26 0 .469-.209.469-.47V4.249h1.571l.935 10.51c-.014.72-.733 1.303-1.613 1.303z" fill="#2F675C"/></svg><svg viewBox="0 0 14 17" id="cart-hover" xmlns="http://www.w3.org/2000/svg"><path d="M13.604 14.695L12.63 3.734a.469.469 0 00-.466-.428h-2.002A3.361 3.361 0 006.803 0a3.361 3.361 0 00-3.358 3.306H1.443a.466.466 0 00-.466.428L.003 14.695 0 14.737C0 15.985 1.144 17 2.552 17h8.503c1.408 0 2.552-1.015 2.552-2.263 0-.014 0-.028-.003-.042zM6.804.94a2.422 2.422 0 012.42 2.367h-4.84A2.422 2.422 0 016.804.94zm4.251 15.122H2.552c-.883 0-1.6-.584-1.613-1.303l.931-10.51h1.572v1.426c0 .26.208.469.469.469.26 0 .47-.209.47-.47V4.249h4.842v1.426c0 .26.209.469.47.469.26 0 .469-.209.469-.47V4.249h1.571l.935 10.51c-.014.72-.733 1.303-1.613 1.303z"/></svg><svg fill="none" viewBox="0 0 50 39" id="check" xmlns="http://www.w3.org/2000/svg"><path d="M50 8.077L41.99 0 19.337 22.846 8.01 11.423 0 19.5 19.337 39 50 8.077z" fill="#2F675C"/></svg><svg viewBox="0 0 10 10" id="check-inp" xmlns="http://www.w3.org/2000/svg"><path d="M9.96 2.426l-6.201 6.2a.14.14 0 01-.198 0l-3.52-3.52a.14.14 0 010-.197l.855-.856a.14.14 0 01.198 0L3.66 6.62l5.246-5.246a.14.14 0 01.198 0l.855.856a.14.14 0 010 .197z" fill="#FFF"/></svg><svg viewBox="0 0 12 12" id="clock" xmlns="http://www.w3.org/2000/svg"><path d="M8.138 7.06L6.465 5.804V3.249a.464.464 0 10-.93 0v2.788c0 .146.069.285.186.372l1.86 1.394a.462.462 0 00.65-.093.464.464 0 00-.093-.65z"/><path d="M6 0C2.691 0 0 2.691 0 6s2.691 6 6 6 6-2.691 6-6-2.691-6-6-6zm0 11.07A5.077 5.077 0 01.93 6 5.077 5.077 0 016 .93 5.076 5.076 0 0111.07 6 5.077 5.077 0 016 11.07z"/></svg><svg fill="none" viewBox="0 0 12 12" id="clock-wait" xmlns="http://www.w3.org/2000/svg"><path d="M8.138 7.06L6.465 5.804V3.249a.464.464 0 10-.93 0v2.788c0 .146.069.285.186.372l1.86 1.394a.462.462 0 00.65-.093.464.464 0 00-.093-.65z" fill="#D69775"/><path d="M6 0C2.691 0 0 2.691 0 6s2.691 6 6 6 6-2.691 6-6-2.691-6-6-6zm0 11.07A5.077 5.077 0 01.93 6 5.077 5.077 0 016 .93 5.076 5.076 0 0111.07 6 5.077 5.077 0 016 11.07z" fill="#D69775"/></svg><svg viewBox="0 0 23 23" id="close" xmlns="http://www.w3.org/2000/svg"><path d="M11.5 23C5.159 23 0 17.841 0 11.5S5.159 0 11.5 0 23 5.159 23 11.5 17.841 23 11.5 23zm0-21.357c-5.435 0-9.857 4.422-9.857 9.857s4.422 9.857 9.857 9.857 9.857-4.422 9.857-9.857-4.422-9.857-9.857-9.857z"/><path d="M15.607 16.428c-.21 0-.42-.08-.58-.24L6.811 7.973a.82.82 0 111.161-1.161l8.215 8.214a.821.821 0 01-.581 1.402z"/><path d="M7.393 16.429a.82.82 0 01-.58-1.402l8.213-8.214a.82.82 0 111.162 1.161l-8.215 8.214c-.16.16-.37.241-.58.241z"/></svg><svg fill="none" viewBox="0 0 60 51" id="facade" xmlns="http://www.w3.org/2000/svg"><path d="M59.137 21.434A.864.864 0 0060 20.57v-9.854a.864.864 0 00-.863-.862h-8.848V.862A.861.861 0 0049.426 0H10.574a.861.861 0 00-.863.862v8.992H.863a.864.864 0 00-.863.862v9.854c0 .477.388.864.863.864h8.848v8.13H.863a.864.864 0 00-.863.863v9.855c0 .477.388.861.863.861h8.848v8.993c0 .477.385.864.863.864h38.852a.863.863 0 00.863-.864v-8.993h8.848a.862.862 0 00.863-.861v-9.855a.864.864 0 00-.863-.864h-8.848v-8.128h8.848zm-.865-1.725H40.574V11.58h17.698v8.129zm-37.117 0V11.58h17.69v8.129h-17.69zm17.69 19.71h-17.69v-8.13h17.69v8.13zM30.863 1.724h17.7v8.131h-17.7v-8.13zm-19.426 0h17.7v8.131h-17.7v-8.13zM1.729 11.58h17.697v8.129H1.73V11.58zm9.708 9.854h17.7v8.13h-17.7v-8.13zM1.729 31.29h17.697v8.13H1.73v-8.13zm27.408 17.985h-17.7v-8.13h17.7v8.13zm19.426 0h-17.7v-8.13h17.7v8.13zm9.709-9.854H40.574v-8.131h17.698v8.13zm-9.709-9.857h-17.7v-8.128h17.7v8.128z" fill="#2F675C"/></svg><svg viewBox="0 0 39 36" id="facebook" xmlns="http://www.w3.org/2000/svg"><path d="M38.5.5H.5v35h38z"/><path d="M24.999 8.004L22.406 8c-2.914 0-4.797 1.932-4.797 4.922v2.27H15a.408.408 0 00-.408.407v3.288c0 .226.183.408.408.408h2.608v8.297c0 .226.182.408.407.408h3.403a.408.408 0 00.408-.408v-8.297h3.049a.408.408 0 00.407-.408l.002-3.288a.408.408 0 00-.408-.408h-3.05v-1.923c0-.925.22-1.394 1.424-1.394L25 11.873a.408.408 0 00.407-.408V8.412A.408.408 0 0025 8.004z" fill="#00695C"/></svg><svg fill="none" viewBox="0 0 10 10" id="filter" xmlns="http://www.w3.org/2000/svg"><g clip-path="url(#clip0)"><path d="M9.462 0H.547a.419.419 0 00-.374.227.425.425 0 00.033.442l3.267 4.602.003.004c.119.16.183.355.183.554V9.58a.417.417 0 00.582.387l1.835-.7a.397.397 0 00.274-.392V5.829c0-.2.064-.394.183-.554l.003-.004L9.803.669c.093-.13.105-.3.033-.442A.419.419 0 009.462 0zM6.124 4.975a1.445 1.445 0 00-.282.854v2.984l-1.675.639V5.829c0-.308-.1-.607-.282-.854L.715.508h8.58L6.124 4.975z" fill="#6CB2A9"/></g></svg><svg fill="none" viewBox="0 0 60 60" id="geosynthetic" xmlns="http://www.w3.org/2000/svg"><path d="M48.61 38.52c5-3.68 4.94-9.13-3.17-12.91 9.07-3.59 9.05-10.55-2.07-13.94A5.32 5.32 0 0045 8c0-4.49-6.59-8-15-8-12 0-18.76 6.91-12.85 12.16-8.47 3.1-8.67 8.17-4.46 11.35C4.8 25.45 0 29 0 33c0 2.83 2.32 5.41 6.57 7.4C2.32 42.49 0 45.14 0 48c0 6.73 13.18 12 30 12s30-5.27 30-12c0-3.85-4.13-7.24-11.39-9.48zM30 2c7.78 0 13 3.1 13 6s-5.22 6-13 6a20.44 20.44 0 01-10.14-2.31l-.13-.08C18 10.55 17 9.26 17 8c0-2.9 5.22-6 13-6zM19.19 13.59c6 3.32 16.51 3.23 22.26-.38C46.66 14.54 50 16.79 50 19s-3 4.21-7.69 5.56c-8 2.26-19.77 1.93-26.55-1.49-6.78-3.42-3.67-7.32 3.43-9.48zM2 33c0-3.25 5.29-6.45 13.2-8 7.26 3.5 19.09 3.82 27.33 1.57C50.25 29.39 53.06 34 45.7 38c-6.47 4-24.32 5.79-36.25 1.41C4.72 37.69 2 35.35 2 33zm28 25C13.25 58 2 52.83 2 48c0-2.34 2.6-4.72 7.15-6.56 10.72 3.78 27.77 3.44 37.17-1.44C53.53 41.9 58 45 58 48c0 4.83-11.25 10-28 10z" fill="#2F675C"/><path d="M53.71 48.3C51.58 50.51 43.26 54 30 54c-9.62 0-15.89-1.84-18.76-2.93a1 1 0 00-1.29.57 1 1 0 00.57 1.3c15.4 5.86 39 2.55 44.63-3.24a1.004 1.004 0 00-1.44-1.4zM7.37 49.17a6.243 6.243 0 01-1.08-.87 1.004 1.004 0 00-1.44 1.4c.428.426.9.805 1.41 1.13a1 1 0 001.39-.28 1 1 0 00-.28-1.38zM10.14 37.55C22.69 42.16 41 39.77 46.64 35a1 1 0 10-1.28-1.53c-5.14 4.32-22.85 6.53-34.53 2.21a1 1 0 00-.69 1.87zM7.53 34.11a8.089 8.089 0 01-1.13-.84 1 1 0 00-1.41 0 1 1 0 00.06 1.42c.44.41.915.782 1.42 1.11a1 1 0 101.06-1.69zM19.71 22.48a42.77 42.77 0 0022 .15c4-1.14 5.52-2.56 5.87-3a1 1 0 10-1.5-1.32c-.12.13-1.24 1.33-4.92 2.37a40.93 40.93 0 01-20.92-.14 1 1 0 10-.58 1.91l.05.03zM15.89 20.86a1 1 0 001-1.72 4.366 4.366 0 01-1-.79 1 1 0 00-1.52 1.3c.44.48.953.888 1.52 1.21zM30 12c7.55 0 12.68-3.49 10.48-4.84a1 1 0 00-1.38.33C38.76 8 35.62 10 30 10c-5.62 0-8.77-2-9.1-2.51a1 1 0 00-1.73 1C20 9.92 24 12 30 12z" fill="#2F675C"/></svg><svg viewBox="0 0 39 36" id="go-up" xmlns="http://www.w3.org/2000/svg"><path d="M38.5.5H.5v35h38z"/><path d="M17.812 11.652l-10.32 10.32a1.68 1.68 0 102.377 2.377L19 15.217l9.13 9.131a1.68 1.68 0 002.378-2.377l-10.32-10.32A1.675 1.675 0 0019 11.16c-.43 0-.86.164-1.188.492z" fill="#2F675C"/></svg><svg fill="none" viewBox="0 0 63 56" id="heat-and-noise" xmlns="http://www.w3.org/2000/svg"><path d="M62.463 32.531a1.3 1.3 0 00-1.302-1.3v-2.604a1.3 1.3 0 100-2.601v-2.602a1.302 1.302 0 000-2.604v-2.602a1.3 1.3 0 100-2.602v-2.604a1.3 1.3 0 100-2.602V7.808a1.302 1.302 0 000-2.604V2.602a1.3 1.3 0 100-2.602H13.014v.025c-3.151.12-6.09.674-8.384 1.591C1.643 2.812 0 4.548 0 6.506v42.943c0 1.958 1.643 3.694 4.63 4.89 2.608 1.042 6.047 1.616 9.684 1.616 3.639 0 7.078-.574 9.685-1.616 2.986-1.196 4.63-2.932 4.63-4.89h32.532a1.3 1.3 0 100-2.602v-2.604a1.3 1.3 0 100-2.602V39.04a1.302 1.302 0 000-2.604v-2.602c.719 0 1.302-.583 1.302-1.302zM5.597 4.033C7.903 3.111 11 2.602 14.314 2.602c3.315 0 6.41.509 8.719 1.431 1.795.72 2.962 1.672 2.992 2.442-.047.298-.863 3.935-11.711 3.935-10.849 0-11.663-3.637-11.71-3.935.03-.77 1.197-1.723 2.993-2.442zM2.602 20.791c.002.02 0 .029 0 .029v-.029zm0 14.314c.002.019 0 .03 0 .03v-.03zm23.424 14.344c0 .774-1.175 1.744-2.993 2.473-2.309.922-5.404 1.431-8.72 1.431-3.312 0-6.41-.509-8.716-1.431-1.819-.729-2.995-1.699-2.995-2.473V39.113c2.448 1.678 6.382 2.528 11.712 2.528 5.331 0 9.266-.85 11.712-2.528V49.45zm0-14.354c-.03.217-.73 3.944-11.712 3.944-10.98 0-11.682-3.727-11.712-3.944V24.8c2.448 1.677 6.382 2.527 11.712 2.527 5.331 0 9.266-.85 11.712-2.527v10.295zm0-14.313c-.03.217-.73 3.942-11.712 3.942-10.98 0-11.682-3.725-11.712-3.942V10.486c2.448 1.676 6.382 2.526 11.712 2.526 5.331 0 9.266-.85 11.712-2.526v10.296zm32.533 26.065h-29.93V33.833h29.93v13.014zm0-15.616h-29.93V18.218h29.93V31.23zm0-15.615H28.63v-9.11c0-1.472-.93-2.82-2.659-3.904h32.59v13.014z" fill="#2F675C"/></svg><svg version="1.1" id="hydro-vapor" x="0" y="0" xml:space="preserve" viewBox="0 0 62.4 55.9" xmlns="http://www.w3.org/2000/svg"><style>.arst0{fill:#2f675c}</style><path class="arst0" d="M62.9 6.5c0-.7-.6-1.3-1.3-1.3V2.6c.7 0 1.3-.6 1.3-1.3S62.3 0 61.6 0H13.5c-3.2.1-6.1.7-8.4 1.6C2.1 2.8.5 4.5.5 6.5v42.9c0 2 1.6 3.7 4.6 4.9 2.6 1 6 1.6 9.7 1.6 3.6 0 7.1-.6 9.7-1.6 3-1.2 4.6-2.9 4.6-4.9h32.5c.7 0 1.3-.6 1.3-1.3s-.6-1.3-1.3-1.3v-2.6c.7 0 1.3-.6 1.3-1.3s-.6-1.3-1.3-1.3V39c.7 0 1.3-.6 1.3-1.3s-.6-1.3-1.3-1.3v-2.6c.7 0 1.3-.6 1.3-1.3 0-.7-.6-1.3-1.3-1.3v-2.6c.7 0 1.3-.6 1.3-1.3 0-.7-.6-1.3-1.3-1.3v-2.6c.7 0 1.3-.6 1.3-1.3 0-.7-.6-1.3-1.3-1.3v-2.6c.7 0 1.3-.6 1.3-1.3 0-.7-.6-1.3-1.3-1.3V13c.7 0 1.3-.6 1.3-1.3s-.6-1.3-1.3-1.3V7.8c.7 0 1.3-.6 1.3-1.3zM6.1 4c2.3-.9 5.4-1.4 8.7-1.4s6.4.5 8.7 1.4c1.8.7 3 1.7 3 2.4 0 .3-.9 3.9-11.7 3.9-10.9.1-11.7-3.5-11.7-3.8 0-.8 1.2-1.7 3-2.5zm20.4 45.4c0 .8-1.2 1.7-3 2.5-2.3.9-5.4 1.4-8.7 1.4s-6.4-.5-8.7-1.4c-1.8-.7-3-1.7-3-2.5V39.1c2.4 1.7 6.4 2.5 11.7 2.5s9.3-.9 11.7-2.5v10.3zm0-14.3c0 .2-.7 3.9-11.7 3.9S3.1 35.3 3.1 35.1V24.8c2.4 1.7 6.4 2.5 11.7 2.5s9.3-.9 11.7-2.5v10.3zm0-14.3c0 .2-.7 3.9-11.7 3.9S3.1 21 3.1 20.8V10.5C5.5 12.2 9.4 13 14.8 13c5.3 0 9.3-.9 11.7-2.5v10.3zM59 15.6v31.2H29.1V6.5c0-1.5-.9-2.8-2.7-3.9H59v13z"/><path class="arst0" d="M43.2 32.1c-2-.6-3.4-2.5-3.4-4.6 0-1 .3-2 .9-2.9v-.1c.1-.2 0-.4-.2-.6-.2-.1-.4 0-.5.1-.7 1-1.1 2.1-1.1 3.3 0 1.2.4 2.4 1.1 3.4.7.9 1.7 1.7 2.8 2h.1c.2 0 .3-.1.4-.3.2 0 .1-.2-.1-.3z"/><path class="arst0" d="M54 23.6c0-.9-.3-1.7-.8-2.5l-2.6-3.9-.1-.1c-.1-.1-.3-.3-.6-.3s-.6.2-.8.5l-.6.9-3-4.5c-.1-.1-.3-.3-.7-.3-.3 0-.6.2-.8.5l-5.7 8.5c-1 1.3-1.6 3.1-1.6 4.8 0 4.5 3.6 8.1 8.1 8.1s8.1-3.6 8.1-8.1v-.8c.7-.7 1.1-1.7 1.1-2.8zm-7.5-2.3c-.5.6-.8 1.5-.8 2.5 0 2.3 1.8 4.1 4.1 4.1.4 0 .8-.1 1.2-.2-.2 3.3-2.9 6-6.3 6-3.5 0-6.3-2.8-6.3-6.3 0-1.3.4-2.6 1.2-3.7l5.1-7.5 2.6 3.9-.8 1.2zm3.4 4.7c-1.3 0-2.3-1-2.3-2.3 0-.5.2-1 .5-1.4l1.2-1.8.5-1 1.9 2.7c.3.4.5.9.5 1.4 0 1.4-1 2.4-2.3 2.4z"/><path class="arst0" d="M49 23.2c0-.2 0-.4.1-.6s0-.5-.2-.5c-.2-.1-.5 0-.5.2-.1.3-.2.6-.2.9 0 .7.4 1.4 1 1.9.1 0 .1.1.2.1s.3-.1.3-.2c.1-.2.1-.4-.1-.6-.3-.2-.6-.7-.6-1.2zM44.7 32.7c-.1-.3-.5-.3-.7-.1s-.1.6.2.7c.4 0 .7-.3.5-.6zM50.3 25.5c.3.2.6 0 .6-.3s-.4-.5-.6-.3c-.3 0-.3.4 0 .6z"/></svg><svg viewBox="0 0 39 36" id="instagram" xmlns="http://www.w3.org/2000/svg"><path d="M38.5.5H.5v35h38z"/><path d="M26.363 9H13.637A2.64 2.64 0 0011 11.637v12.726A2.64 2.64 0 0013.637 27h12.726A2.64 2.64 0 0029 24.363V11.637A2.64 2.64 0 0026.363 9zm-6.328 13.71a4.751 4.751 0 01-4.746-4.745 4.751 4.751 0 014.746-4.746 4.751 4.751 0 014.746 4.746 4.751 4.751 0 01-4.746 4.746zm5.274-8.437c-.873 0-1.582-.71-1.582-1.582 0-.872.71-1.582 1.582-1.582.872 0 1.582.71 1.582 1.582 0 .873-.71 1.582-1.582 1.582z" fill="#00695C"/><path d="M25.309 12.164a.528.528 0 100 1.055.528.528 0 000-1.055zM20.035 14.273a3.696 3.696 0 00-3.691 3.692 3.696 3.696 0 003.691 3.691 3.696 3.696 0 003.692-3.691 3.696 3.696 0 00-3.692-3.692z" fill="#00695C"/></svg><svg fill="none" viewBox="0 0 53 55" id="mansard" xmlns="http://www.w3.org/2000/svg"><path d="M50.416 55H10.083a1.833 1.833 0 01-1.833-1.833V29.333a.917.917 0 011.833 0v23.834h40.333V1.833H10.083v10.368a.917.917 0 11-1.833 0V1.833C8.25.821 9.07 0 10.083 0h40.333c1.012 0 1.833.82 1.833 1.833v51.334c0 1.012-.82 1.833-1.833 1.833zm-2.75-3.666H12.832a.917.917 0 01-.916-.918V38.5c0-.506.41-.916.916-.916h34.834c.506 0 .916.41.916.916v11.916c0 .507-.41.918-.916.918zM13.749 49.5h33V39.417h-33V49.5zm33.917-13.75H12.832a.917.917 0 01-.916-.917v-5.5a.917.917 0 011.833 0v4.584h33V5.5H12.832a.917.917 0 010-1.834h34.834c.506 0 .916.411.916.918v30.25c0 .506-.41.916-.916.916z" fill="#2F675C"/><path d="M47.666 35.75H12.832a.917.917 0 01-.916-.917v-5.5a.917.917 0 011.833 0v4.584h33V5.5H12.832a.917.917 0 010-1.834h34.834c.506 0 .916.411.916.918v30.25c0 .506-.41.916-.916.916zM47.666 51.334H12.832a.917.917 0 01-.916-.918V38.5c0-.506.41-.916.916-.916h34.834c.506 0 .916.41.916.916v11.916c0 .507-.41.918-.916.918zM13.749 49.5h33V39.417h-33V49.5z" fill="#2F675C"/><path d="M47.666 35.75H12.832a.917.917 0 01-.916-.917v-5.5a.917.917 0 011.833 0v4.584h33V5.5H12.832a.917.917 0 010-1.834h34.834c.506 0 .916.411.916.918v30.25c0 .506-.41.916-.916.916z" fill="#2F675C"/><path d="M35.75 30.25H.915a.917.917 0 01-.825-1.315l11.916-24.75a.917.917 0 01.825-.519h34.834a.917.917 0 01.825 1.315l-11.917 24.75a.917.917 0 01-.825.519zM2.373 28.417h32.8L46.206 5.5h-32.8L2.375 28.417z" fill="#2F675C"/><path d="M33.445 26.583H6.751a.915.915 0 01-.826-1.314l8.387-17.417a.916.916 0 01.825-.519H41.83a.916.916 0 01.825 1.315L34.27 26.065a.916.916 0 01-.825.518zM8.21 24.75h24.658l7.503-15.584H15.713L8.21 24.75zM47.666 51.334H12.832a.917.917 0 01-.916-.918V38.5c0-.506.41-.916.916-.916h34.834c.506 0 .916.41.916.916v11.916c0 .507-.41.918-.916.918zM13.749 49.5h33V39.417h-33V49.5zM47.666 22.916a.916.916 0 01-.648-.268l-5.5-5.5a.916.916 0 011.296-1.296l5.5 5.5a.917.917 0 01-.648 1.564zM24.749 35.75a.916.916 0 01-.648-.269l-5.5-5.5a.917.917 0 011.296-1.296l5.5 5.5a.917.917 0 01-.648 1.565z" fill="#2F675C"/></svg><svg viewBox="0 0 18 18" id="map" xmlns="http://www.w3.org/2000/svg"><path d="M17.576 3.982c-6.108-1.214-5.712-1.15-5.85-1.127-.045.007-.587.116-1.85.369A3.909 3.909 0 006.188.597a3.91 3.91 0 00-3.69 2.631L.63 2.857a.528.528 0 00-.63.517V15.75c0 .252.178.468.425.517 6.055 1.204 5.659 1.126 5.699 1.131.127.016-.266.08 5.689-1.11l5.557 1.104a.527.527 0 00.63-.517V4.5a.527.527 0 00-.424-.517zM6.187 1.652a2.85 2.85 0 012.848 2.847c0 1.325-2.12 4.688-2.848 5.8C5.46 9.188 3.34 5.825 3.34 4.5a2.85 2.85 0 012.848-2.848zM1.056 4.015l1.238.246a3.937 3.937 0 00-.008.237c0 .88.575 2.299 1.759 4.339a46.014 46.014 0 001.616 2.574v4.82l-4.605-.916v-11.3zm5.66 7.396A46 46 0 008.33 8.838c1.184-2.04 1.759-3.46 1.759-4.339 0-.08-.003-.161-.008-.241l1.203-.24v11.299l-4.57.914v-4.82zm10.23 4.82l-4.605-.916v-11.3l4.605.916v11.3z"/><path d="M6.188 6.151c.91 0 1.652-.74 1.652-1.652 0-.911-.741-1.652-1.652-1.652-.912 0-1.653.741-1.653 1.652 0 .911.741 1.652 1.652 1.652zm0-2.25a.598.598 0 11-.002 1.197.598.598 0 01.002-1.197z"/></svg><svg fill="none" viewBox="0 0 7 1" id="minus" xmlns="http://www.w3.org/2000/svg"><path fill="#000" d="M0 0h7v1H0z"/></svg><svg viewBox="0 0 12 12" id="phone" xmlns="http://www.w3.org/2000/svg"><path d="M9.484 7.434c-.246-.256-.542-.393-.856-.393-.312 0-.61.134-.866.39l-.8.798-.196-.101a3.218 3.218 0 01-.25-.135c-.75-.476-1.431-1.096-2.085-1.899-.316-.4-.53-.737-.684-1.079.208-.19.4-.387.588-.577l.213-.216c.532-.532.532-1.22 0-1.752l-.692-.692c-.078-.078-.16-.16-.235-.24-.152-.157-.312-.32-.476-.471-.246-.244-.54-.373-.849-.373-.309 0-.608.13-.861.373l-.005.005-.861.868c-.324.325-.51.72-.55 1.178-.06.74.157 1.428.324 1.88.41 1.106 1.024 2.132 1.938 3.231a11.918 11.918 0 003.969 3.108c.582.276 1.36.602 2.228.658.054.003.11.005.16.005.585 0 1.076-.21 1.461-.628.003-.005.008-.008.01-.013.132-.16.284-.303.444-.458.108-.104.22-.213.329-.327.25-.26.382-.565.382-.876 0-.314-.134-.615-.39-.869l-1.39-1.395zm.906 2.667c-.002 0-.002.002 0 0-.098.106-.2.202-.308.309a6.662 6.662 0 00-.49.506c-.255.274-.556.403-.952.403-.038 0-.078 0-.116-.003-.752-.048-1.451-.342-1.976-.592A11.251 11.251 0 012.81 7.796C1.947 6.755 1.37 5.793.987 4.759.75 4.13.665 3.637.703 3.174c.025-.297.14-.542.35-.752l.863-.864c.124-.117.256-.18.385-.18.16 0 .289.096.37.177l.008.008c.154.144.3.294.455.453l.241.246.691.691c.269.269.269.517 0 .786-.073.073-.144.146-.217.217-.213.218-.416.42-.636.618-.005.005-.01.008-.013.013-.218.218-.177.43-.131.575l.007.023c.18.435.433.846.818 1.334l.003.003c.699.861 1.436 1.532 2.249 2.046.104.066.21.12.311.17.091.046.178.089.251.134l.03.018a.549.549 0 00.251.063c.21 0 .342-.131.385-.174l.866-.867c.086-.086.223-.19.383-.19.157 0 .286.1.364.185l.005.005 1.396 1.396c.26.258.26.524.002.793zM6.486 2.855a3.212 3.212 0 011.747.906c.481.481.793 1.084.907 1.748a.34.34 0 00.337.283.342.342 0 00.34-.4 3.906 3.906 0 00-1.098-2.115 3.906 3.906 0 00-2.114-1.096.344.344 0 00-.396.278.338.338 0 00.277.396zM11.986 5.294A6.427 6.427 0 0010.18 1.81 6.427 6.427 0 006.698.005a.34.34 0 10-.112.674c1.18.2 2.257.76 3.113 1.613a5.738 5.738 0 011.614 3.113.34.34 0 00.336.284c.02 0 .038-.003.059-.005a.336.336 0 00.278-.39z"/></svg><svg viewBox="0 0 12 12" id="pin" xmlns="http://www.w3.org/2000/svg"><path d="M6 0C3.48 0 1.43 2.05 1.43 4.57c0 2.841 2.92 4.981 4.267 7.258a.352.352 0 00.606 0C7.65 9.552 10.57 7.41 10.57 4.57 10.57 2.05 8.52 0 6 0zm0 10.994C4.57 8.885 2.133 6.906 2.133 4.57A3.872 3.872 0 016 .703 3.872 3.872 0 019.867 4.57c0 2.336-2.437 4.316-3.867 6.424z"/><path d="M6 1.406A3.168 3.168 0 002.836 4.57 3.168 3.168 0 006 7.734 3.168 3.168 0 009.164 4.57 3.168 3.168 0 006 1.406zm0 5.625a2.464 2.464 0 01-2.46-2.46A2.464 2.464 0 016 2.108 2.464 2.464 0 018.46 4.57 2.464 2.464 0 016 7.031z"/><path d="M6 2.813c-.582 0-1.055.473-1.055 1.054a.352.352 0 00.703 0 .352.352 0 11.47.331.71.71 0 00-.47.668v.056a.352.352 0 00.704 0v-.056c0-.002.001-.005.004-.006A1.056 1.056 0 006 2.812zM6 6.328a.352.352 0 100-.703.352.352 0 000 .703z"/></svg><svg fill="none" viewBox="0 0 7 7" id="plus" xmlns="http://www.w3.org/2000/svg"><path fill="#000" d="M0 3h7v1H0z"/><path fill="#000" d="M4 7V0H3v7z"/></svg><svg viewBox="0 0 11 11" id="refresh" xmlns="http://www.w3.org/2000/svg"><path d="M5.5 8.5a3 3 0 01-2.652-4.402l-.73-.73A3.999 3.999 0 005.5 9.5v1.499l2-2-2-2v1.5zM5.5 1.5V0l-2 2 2 2V2.5a3 3 0 012.652 4.402l.73.73A3.999 3.999 0 005.5 1.5z"/></svg><svg fill="none" viewBox="0 0 82 43" id="roofing" xmlns="http://www.w3.org/2000/svg"><path d="M81.906 35.52l-.002-.005-.002-.005L68.757 4.916c-.479-1.114-1.202-2.081-2.092-2.797A9.615 9.615 0 0060.655 0H28.62a1.17 1.17 0 00-.094 0h-5.73c-.663 0-1.2.54-1.2 1.206 0 .666.537 1.206 1.2 1.206h4.291l-2.166 10.08a11.133 11.133 0 00-7.007-2.456c-1.646 0-3.244.357-4.694 1.026l2.23-5.19a4.873 4.873 0 011.4-1.882s1.026-.718 1.59-.966c.606-.27.881-.98.613-1.59a1.2 1.2 0 00-1.584-.618 9.577 9.577 0 00-2.118 1.29 7.28 7.28 0 00-2.107 2.81L4.78 24.613a1.084 1.084 0 00-.03.074L.097 35.51c0 .002 0 .004-.002.005l-.001.005c-.066.156-.097.32-.095.481v4.369c0 .765.452 1.454 1.152 1.758.698.302 1.508.16 2.06-.365a11.496 11.496 0 017.938-3.165c3.242 0 6.357 1.378 8.544 3.78a1.905 1.905 0 002.814 0 11.579 11.579 0 018.542-3.78c3.242 0 6.356 1.378 8.543 3.78a1.905 1.905 0 002.814 0 11.578 11.578 0 018.542-3.78c3.242 0 6.357 1.378 8.544 3.78a1.905 1.905 0 002.814 0 11.503 11.503 0 015.887-3.473 1.206 1.206 0 00-.55-2.348 13.876 13.876 0 00-6.744 3.807 13.987 13.987 0 00-9.951-4.178A13.981 13.981 0 0041 40.364a13.983 13.983 0 00-9.95-4.178 13.982 13.982 0 00-9.95 4.178 13.982 13.982 0 00-9.95-4.178c-3.207 0-6.273 1.09-8.748 3.088v-2.849c4.743-5.504 13.267-5.283 17.764.32.016.014.26.364.759.436.45.064.865-.12 1.123-.45a11.506 11.506 0 019.002-4.318c3.324 0 6.455 1.276 9.038 4.36a1.062 1.062 0 00.144.142 1.2 1.2 0 001.702-.169l.002-.001a11.507 11.507 0 019.013-4.332c6.026 0 9.172 4.494 9.156 4.48.964.85 1.908-.304 1.71-.124 5.147-6.06 13.373-5.459 17.783-.344v2.848a13.84 13.84 0 00-6.679-2.934 1.206 1.206 0 00-.353 2.386c2.34.349 4.492 1.4 6.222 3.037a1.896 1.896 0 002.06.366A1.913 1.913 0 0082 40.37V36a1.192 1.192 0 00-.094-.481zm-61.502-2.007c-4.431-3.941-10.928-4.637-16.09-1.727l2.58-6.001a10.231 10.231 0 017.58-3.334c2.923 0 5.66 1.212 7.588 3.342l-1.658 7.72zm2.253-10.489a12.607 12.607 0 00-8.183-2.985c-2.002 0-3.947.47-5.688 1.342l2.582-6.009a8.726 8.726 0 016.545-2.923 8.717 8.717 0 016.42 2.78l-1.676 7.795zM39.8 33.085A13.877 13.877 0 0031.05 30c-2.894 0-5.659.885-7.97 2.5l1.425-6.633c1.93-2.176 4.697-3.416 7.653-3.416 2.95 0 5.712 1.235 7.642 3.4v7.234zm0-10.495a12.621 12.621 0 00-7.642-2.55c-2.463 0-4.82.7-6.827 1.983l1.43-6.655a8.712 8.712 0 016.544-2.92 8.715 8.715 0 016.495 2.863v7.279zm0-10.487a11.152 11.152 0 00-6.495-2.066c-2.057 0-4.03.553-5.736 1.571l1.975-9.195H39.8v9.69zm20.856-9.69c1.659 0 3.217.549 4.507 1.587a4.857 4.857 0 011.389 1.871l2.23 5.192a11.215 11.215 0 00-4.696-1.026 11.13 11.13 0 00-7.005 2.455l-2.165-10.08h5.74zm-18.453 0h10.255l1.976 9.195a11.174 11.174 0 00-5.738-1.571c-2.369 0-4.627.733-6.493 2.066v-9.69zm0 12.898c1.647-1.825 3.99-2.862 6.493-2.862 2.53 0 4.895 1.06 6.545 2.919l1.43 6.655a12.647 12.647 0 00-6.83-1.983c-2.803 0-5.47.907-7.639 2.55V15.31zM50.949 30a13.87 13.87 0 00-8.747 3.085v-7.233c1.93-2.166 4.69-3.4 7.64-3.4 2.957 0 5.724 1.24 7.654 3.415l1.426 6.634A13.88 13.88 0 0050.949 30zm6.719-14.772a8.716 8.716 0 016.417-2.78 8.728 8.728 0 016.548 2.924l2.582 6.01a12.704 12.704 0 00-5.69-1.343 12.602 12.602 0 00-8.182 2.985l-1.675-7.796zm3.929 18.285l-1.659-7.72c1.927-2.13 4.665-3.342 7.587-3.342 2.903 0 5.655 1.213 7.582 3.334l2.58 6.001c-5.068-2.855-11.57-2.295-16.09 1.727z" fill="#2F675C"/></svg><svg fill="none" viewBox="0 0 19 19" id="select-arrow" xmlns="http://www.w3.org/2000/svg"><circle cx="9.5" cy="9.5" r="9.5" transform="rotate(-180 9.5 9.5)" fill="#E4F1F1"/><path d="M9.054 12.096l-3.87-3.87a.63.63 0 11.892-.892L9.5 10.76l3.424-3.425a.63.63 0 01.891.892l-3.87 3.87a.628.628 0 01-.89 0z" fill="#6CB2A9"/></svg><svg viewBox="0 0 20 20" id="share-facebook" xmlns="http://www.w3.org/2000/svg"><path d="M15 .004L12.405 0C9.492 0 7.609 1.932 7.609 4.922v2.27H5.001a.408.408 0 00-.407.407v3.288c0 .226.182.408.407.408H7.61v8.297c0 .226.182.408.408.408h3.402a.408.408 0 00.408-.408v-8.297h3.049a.408.408 0 00.408-.408V7.6a.409.409 0 00-.407-.408h-3.05V5.268c0-.925.22-1.394 1.425-1.394l1.747-.001a.408.408 0 00.407-.408V.412A.408.408 0 0015 .004z"/></svg><svg viewBox="0 0 14 14" id="share-google" xmlns="http://www.w3.org/2000/svg"><path d="M7 5.6v2.8h3.96A4.208 4.208 0 017 11.2 4.205 4.205 0 012.8 7c0-2.316 1.884-4.2 4.2-4.2 1.004 0 1.97.36 2.72 1.014l1.84-2.112A6.937 6.937 0 007 0C3.14 0 0 3.14 0 7s3.14 7 7 7 7-3.14 7-7V5.6H7z"/></svg><svg viewBox="0 0 15 16" id="share-print" xmlns="http://www.w3.org/2000/svg"><path d="M12.388 2.906v-.704A2.204 2.204 0 0010.186 0H4.785a2.204 2.204 0 00-2.202 2.202v.704h9.805zM3.464 9.364V14.148c0 .487.394.881.88.881h6.282a.88.88 0 00.88-.88V9.364H3.465zm5.196 3.757H6.31a.44.44 0 110-.88H8.66a.44.44 0 110 .88zm0-1.878H6.31a.44.44 0 010-.881H8.66a.44.44 0 010 .88z"/><path d="M12.798 3.787H2.202A2.204 2.204 0 000 5.988v3.523c0 1.214.988 2.201 2.202 2.201h.381V9.364H2.32a.44.44 0 010-.88h10.333a.44.44 0 010 .88h-.264v2.348h.41A2.204 2.204 0 0015 9.511V5.988a2.204 2.204 0 00-2.202-2.201zm-9.07 2.759H2.319a.44.44 0 010-.88h1.409a.44.44 0 010 .88z"/></svg><svg viewBox="0 0 17 14" id="share-twitter" xmlns="http://www.w3.org/2000/svg"><path d="M17 1.635a7.266 7.266 0 01-2.008.55A3.466 3.466 0 0016.525.26a6.966 6.966 0 01-2.21.844 3.484 3.484 0 00-6.029 2.383c0 .276.024.542.081.795A9.865 9.865 0 011.184.635a3.49 3.49 0 001.071 4.658A3.442 3.442 0 01.68 4.864v.038c0 1.694 1.208 3.1 2.792 3.425a3.478 3.478 0 01-.913.115c-.224 0-.449-.013-.66-.06a3.518 3.518 0 003.256 2.428 7.003 7.003 0 01-4.32 1.486A6.52 6.52 0 010 12.25a9.811 9.811 0 005.346 1.563c6.414 0 9.92-5.312 9.92-9.917 0-.154-.005-.303-.013-.45A6.954 6.954 0 0017 1.635z"/></svg><svg viewBox="0 0 18 17" id="star" xmlns="http://www.w3.org/2000/svg"><path d="M9 0l2.02 6.219h6.54l-5.29 3.843 2.02 6.22L9 12.437 3.71 16.28l2.02-6.219L.44 6.22h6.54L9 0z"/></svg><svg fill="none" viewBox="0 0 84 84" id="subscription" xmlns="http://www.w3.org/2000/svg"><circle cx="42" cy="42" r="42" fill="#fff"/><path d="M64.896 72.5A42.769 42.769 0 0077.87 54.731c1.411-3.912 1.147-5.976.994-6.517a1 1 0 10-1.947.446c.035.174.355 1.784-.951 5.378A40.93 40.93 0 0163.63 70.936a1 1 0 101.211 1.586l.054-.023zM61.35 74.653a1 1 0 00-.812-1.817c-.39.176-.802.294-1.226.35a1 1 0 10.167 1.993 6.252 6.252 0 001.87-.526zM56.18 20H27.82v12.176L20 36.043V64h44V36.043l-7.82-3.867V20zm-2.578 2.578v22.039L42 53.282l-11.602-8.665V22.578h23.204zM27.82 35.052v7.639l-5.242-3.915v-1.132l5.242-2.592zm-5.242 26.37V41.994L42 56.499l19.422-14.505v19.428H22.578zm38.844-23.778v1.132L56.18 42.69v-7.639l5.242 2.592z" fill="#2F675C"/><path d="M47.69 31.688l-1.823-1.823-5.156 5.156-2.578-2.578-1.823 1.823 4.4 4.4 6.98-6.978z" fill="#2F675C"/></svg><svg fill="none" viewBox="0 0 12 12" id="tel" xmlns="http://www.w3.org/2000/svg"><g clip-path="url(#clip0)" fill="#2F675C"><path d="M9.484 7.434c-.246-.256-.542-.393-.856-.393-.312 0-.61.134-.866.39l-.8.798-.196-.101a3.218 3.218 0 01-.25-.135c-.75-.476-1.431-1.096-2.085-1.899-.316-.4-.53-.737-.684-1.079.208-.19.4-.387.588-.577l.213-.216c.532-.532.532-1.22 0-1.752l-.692-.692c-.078-.078-.16-.16-.235-.24-.152-.157-.312-.32-.476-.471-.246-.244-.54-.373-.849-.373-.309 0-.608.13-.861.373l-.005.005-.861.868c-.324.325-.51.72-.55 1.178-.06.74.157 1.428.324 1.88.41 1.106 1.024 2.132 1.938 3.231a11.918 11.918 0 003.969 3.108c.582.276 1.36.602 2.228.658.054.003.11.005.16.005.585 0 1.076-.21 1.461-.628.003-.005.008-.008.01-.013.132-.16.284-.303.444-.458.108-.104.22-.213.329-.327.25-.26.382-.565.382-.876 0-.314-.134-.615-.39-.869l-1.39-1.395zm.906 2.667c-.002 0-.002.002 0 0-.098.106-.2.202-.308.309a6.662 6.662 0 00-.49.506c-.255.274-.556.403-.952.403-.038 0-.078 0-.116-.003-.752-.048-1.451-.342-1.976-.592A11.251 11.251 0 012.81 7.796C1.947 6.755 1.37 5.793.987 4.759.75 4.13.665 3.637.703 3.174c.025-.297.14-.542.35-.752l.863-.864c.124-.117.256-.18.385-.18.16 0 .289.096.37.177l.008.008c.154.144.3.294.455.453l.241.246.691.691c.269.269.269.517 0 .786-.073.073-.144.146-.217.217-.213.218-.416.42-.636.618-.005.005-.01.008-.013.013-.218.218-.177.43-.131.575l.007.023c.18.435.433.846.818 1.334l.003.003c.699.861 1.436 1.532 2.249 2.046.104.066.21.12.311.17.091.046.178.089.251.134l.03.018a.549.549 0 00.251.063c.21 0 .342-.131.385-.174l.866-.867c.086-.086.223-.19.383-.19.157 0 .286.1.364.185l.005.005 1.396 1.396c.26.258.26.524.002.793zM6.486 2.855a3.212 3.212 0 011.747.906c.481.481.793 1.084.907 1.748a.34.34 0 00.337.283.342.342 0 00.34-.4 3.906 3.906 0 00-1.098-2.114A3.906 3.906 0 006.605 2.18a.344.344 0 00-.396.278.338.338 0 00.277.396zM11.986 5.294A6.427 6.427 0 0010.18 1.81 6.427 6.427 0 006.698.005a.34.34 0 10-.112.674c1.18.2 2.257.76 3.113 1.613a5.738 5.738 0 011.614 3.113.34.34 0 00.336.284c.02 0 .038-.003.059-.005a.336.336 0 00.278-.39z"/></g></svg><svg fill="none" viewBox="0 0 10 12" id="tic" xmlns="http://www.w3.org/2000/svg"><path d="M5 0C2.48 0 .43 2.05.43 4.57c0 2.841 2.92 4.981 4.267 7.258a.352.352 0 00.606 0C6.65 9.552 9.57 7.41 9.57 4.57 9.57 2.05 7.52 0 5 0zm0 10.994C3.57 8.885 1.133 6.906 1.133 4.57A3.872 3.872 0 015 .703 3.872 3.872 0 018.867 4.57c0 2.336-2.437 4.316-3.867 6.424z" fill="#2F675C"/><path d="M5 1.406A3.168 3.168 0 001.836 4.57 3.168 3.168 0 005 7.734 3.168 3.168 0 008.164 4.57 3.168 3.168 0 005 1.406zm0 5.625a2.464 2.464 0 01-2.46-2.46A2.464 2.464 0 015 2.108 2.464 2.464 0 017.46 4.57 2.464 2.464 0 015 7.031z" fill="#2F675C"/></svg><svg fill="none" viewBox="0 0 10 10" id="tick" xmlns="http://www.w3.org/2000/svg"><path d="M9.96 2.426l-6.201 6.2a.14.14 0 01-.198 0l-3.52-3.52a.14.14 0 010-.197l.855-.856a.14.14 0 01.198 0L3.66 6.62l5.246-5.246a.14.14 0 01.198 0l.855.856a.14.14 0 010 .197z" fill="#6CB2A9"/></svg><svg fill="none" viewBox="0 0 12 12" id="time" xmlns="http://www.w3.org/2000/svg"><path d="M8.138 7.06L6.465 5.804V3.249a.464.464 0 10-.93 0v2.788c0 .146.069.285.186.372l1.86 1.394a.462.462 0 00.65-.093.464.464 0 00-.093-.65z" fill="#2F675C"/><path d="M6 0C2.691 0 0 2.691 0 6s2.691 6 6 6 6-2.691 6-6-2.691-6-6-6zm0 11.07A5.077 5.077 0 01.93 6 5.077 5.077 0 016 .93 5.076 5.076 0 0111.07 6 5.077 5.077 0 016 11.07z" fill="#2F675C"/></svg><svg viewBox="0 0 12 12" id="trash" xmlns="http://www.w3.org/2000/svg"><path d="M11.063 1.945H8.226v-.539C8.227.631 7.596 0 6.82 0H5.18c-.776 0-1.407.63-1.407 1.406v.54H.937a.469.469 0 100 .937h.486l.571 7.406v.006A1.87 1.87 0 003.863 12h4.276a1.86 1.86 0 001.867-1.692.469.469 0 00-.933-.085.927.927 0 01-.934.84H3.862a.933.933 0 01-.933-.85l-.566-7.33h7.274l-.4 5.19a.469.469 0 00.934.072l.406-5.262h.486a.469.469 0 100-.938zm-3.774 0H4.711v-.539A.47.47 0 015.18.938h1.64a.47.47 0 01.47.468v.54z"/><path d="M3.87 3.82a.469.469 0 00-.448.49l.235 5.365a.469.469 0 00.936-.04L4.36 4.268a.469.469 0 00-.489-.448zM7.641 4.269l-.234 5.365a.469.469 0 00.936.041l.235-5.365a.469.469 0 00-.937-.041zM5.531 4.29v5.365a.469.469 0 10.938 0V4.289a.469.469 0 10-.938 0z"/></svg><svg fill="none" viewBox="0 0 12 12" id="where-mark" xmlns="http://www.w3.org/2000/svg"><path d="M6 0C3.48 0 1.43 2.05 1.43 4.57c0 2.841 2.92 4.981 4.267 7.258a.352.352 0 00.606 0C7.65 9.552 10.57 7.41 10.57 4.57 10.57 2.05 8.52 0 6 0zm0 10.994C4.57 8.885 2.133 6.906 2.133 4.57A3.872 3.872 0 016 .703 3.872 3.872 0 019.867 4.57c0 2.336-2.437 4.316-3.867 6.424z" fill="#2F675C"/><path d="M6 1.406A3.168 3.168 0 002.836 4.57 3.168 3.168 0 006 7.734 3.168 3.168 0 009.164 4.57 3.168 3.168 0 006 1.406zm0 5.625a2.464 2.464 0 01-2.46-2.46A2.464 2.464 0 016 2.108 2.464 2.464 0 018.46 4.57 2.464 2.464 0 016 7.031z" fill="#2F675C"/><path d="M6 2.813c-.582 0-1.055.473-1.055 1.054a.352.352 0 00.703 0 .352.352 0 11.47.331.71.71 0 00-.47.668v.056a.352.352 0 00.704 0v-.056c0-.002.001-.005.004-.006A1.056 1.056 0 006 2.812zM6 6.328a.352.352 0 100-.703.352.352 0 000 .703z" fill="#2F675C"/></svg></svg>