<svg id="Capa_1" enable-background="new 0 0 512 512" height="512" viewBox="0 0 512 512" width="512" xmlns="http://www.w3.org/2000/svg"><path d="m258.7 7.52v496.96c136-1.44 245.8-112.14 245.8-248.48s-109.8-247.04-245.8-248.48z" fill="#ffbb54"/><path d="m258.7 7.52c-.9-.01-1.8-.02-2.7-.02-137.24 0-248.5 111.26-248.5 248.5s111.26 248.5 248.5 248.5c.9 0 1.8-.01 2.7-.02 113.9-1.72 205.8-112.31 205.8-248.48s-91.9-246.76-205.8-248.48z" fill="#ffd45a"/><path d="m354.5 226.2-97.23 124.25h99.89c17.13-21.83 27.34-49.35 27.34-79.25v-15c0-16.5-13.5-30-30-30z" fill="#b74147"/><path d="m157.5 226.2c-16.5 0-30 13.5-30 30v15c0 29.9 10.21 57.42 27.34 79.25l187.05-16.32c8.03-18.6 12.61-40.07 12.61-62.93v-14.997s-197-30.003-197-30.003z" fill="#ff3c1f"/><path d="m341.89 334.13-84.62 65.56c40.55-.39 76.6-19.56 99.89-49.24-4.61-5.87-9.72-11.34-15.27-16.32z" fill="#fa4087"/><path d="m341.89 334.13c-16.68 38.69-48.28 64.96-84.62 65.56-.42.01-.85.01-1.27.01-41.07 0-77.63-19.26-101.16-49.25 23.53-29.98 60.09-49.25 101.16-49.25 33.02 0 63.13 12.46 85.89 32.93z" fill="#fa71a3"/><path d="m324.5 226.2-15 45h30c8.25 0 15-6.75 15-15v-30z" fill="#fff7df"/><path d="m324.5 226.2v30c0 8.25-6.75 15-15 15h-137c-8.25 0-15-6.75-15-15v-30z" fill="#fff"/><path d="m339.5 121.2c-8.25 0-15 6.75-15 15v45c0 8.25 6.75 15 15 15s15-6.75 15-15v-45c0-8.25-6.75-15-15-15z" fill="#474867"/><path d="m172.5 121.203c-8.25 0-15 6.75-15 15v45c0 8.25 6.75 15 15 15s15-6.75 15-15v-45c0-8.25-6.75-15-15-15z" fill="#474867"/><path d="m437.02 74.98c-48.352-48.351-112.64-74.98-181.02-74.98-62.629 0-122.916 22.87-169.754 64.396-3.1 2.748-3.384 7.488-.637 10.587 2.748 3.1 7.488 3.385 10.588.636 44.092-39.09 100.844-60.619 159.803-60.619 132.888 0 241 108.112 241 241s-108.112 241-241 241-241-108.112-241-241c0-58.958 21.528-115.711 60.62-159.803 2.747-3.1 2.463-7.84-.637-10.587-3.1-2.749-7.84-2.462-10.588.636-41.526 46.838-64.395 107.125-64.395 169.754 0 68.38 26.629 132.667 74.98 181.02s112.64 74.98 181.02 74.98 132.668-26.628 181.02-74.98 74.98-112.64 74.98-181.02-26.629-132.667-74.98-181.02z"/><path d="m120 256.203v13.605c0 75.5 60.794 137.135 135.52 137.394.163 0 .322.001.484.001 36.24 0 70.316-14.077 95.995-39.667 25.795-25.705 40.001-59.917 40.001-96.333v-15c0-20.678-16.822-37.5-37.5-37.5h-197c-20.678 0-37.5 16.822-37.5 37.5zm221.411 100.709c-22.849 22.769-53.162 35.292-85.408 35.292-.143 0-.289 0-.431-.001-36.144-.125-68.62-16.414-90.738-42.058 23.023-26.414 55.896-41.442 91.166-41.442 35.409 0 68.399 15.149 91.436 41.757-1.922 2.21-3.929 4.363-6.025 6.452zm-176.411-123.209h182v22.5c0 4.136-3.364 7.5-7.5 7.5h-167c-4.136 0-7.5-3.364-7.5-7.5zm-30 22.5c0-9.777 6.271-18.114 15-21.21v21.21c0 12.407 10.094 22.5 22.5 22.5h167c12.406 0 22.5-10.093 22.5-22.5v-21.21c8.729 3.096 15 11.433 15 21.21v15c0 24.258-7.087 47.416-20.28 67.122-25.777-28.469-61.956-44.622-100.72-44.622-38.609 0-74.655 16.023-100.411 44.281-12.995-19.507-20.589-42.974-20.589-68.176z"/><path d="m248.5 422.203c-4.143 0-7.5 3.358-7.5 7.5s3.357 7.5 7.5 7.5h15c4.143 0 7.5-3.358 7.5-7.5s-3.357-7.5-7.5-7.5z"/><path d="m362 181.2v-45c0-12.407-10.094-22.5-22.5-22.5s-22.5 10.093-22.5 22.5v45c0 12.407 10.094 22.5 22.5 22.5s22.5-10.093 22.5-22.5zm-30 0v-45c0-4.136 3.364-7.5 7.5-7.5s7.5 3.364 7.5 7.5v45c0 4.136-3.364 7.5-7.5 7.5s-7.5-3.364-7.5-7.5z"/><path d="m195 181.203v-45c0-12.407-10.094-22.5-22.5-22.5s-22.5 10.093-22.5 22.5v45c0 12.407 10.094 22.5 22.5 22.5s22.5-10.094 22.5-22.5zm-30 0v-45c0-4.136 3.364-7.5 7.5-7.5s7.5 3.364 7.5 7.5v45c0 4.136-3.364 7.5-7.5 7.5s-7.5-3.365-7.5-7.5z"/></svg>