<svg id="Capa_1" enable-background="new 0 0 512 512" height="512" viewBox="0 0 512 512" width="512" xmlns="http://www.w3.org/2000/svg"><path d="m258.7 7.52v496.96c136-1.44 245.8-112.14 245.8-248.48s-109.8-247.04-245.8-248.48z" fill="#ffbb54"/><path d="m258.7 7.52c-.9-.01-1.8-.02-2.7-.02-137.24 0-248.5 111.26-248.5 248.5s111.26 248.5 248.5 248.5c.9 0 1.8-.01 2.7-.02 113.9-1.72 205.8-112.31 205.8-248.48s-91.9-246.76-205.8-248.48z" fill="#ffd45a"/><path d="m339.5 121.2c-8.25 0-15 6.75-15 15v45c0 8.25 6.75 15 15 15s15-6.75 15-15v-45c0-8.25-6.75-15-15-15z" fill="#474867"/><path d="m172.5 121.203c-8.25 0-15 6.75-15 15v45c0 8.25 6.75 15 15 15s15-6.75 15-15v-45c0-8.25-6.75-15-15-15z" fill="#474867"/><path d="m372.62 287.609-33.12-61.4v116.49c20.71 0 37.5-16.79 37.5-37.5 0-6.36-1.59-12.34-4.38-17.59z" fill="#3a9dd9"/><path d="m350.54 287.609c.93 5.25 1.46 11.23 1.46 17.59 0 20.71-5.6 37.5-12.5 37.5-20.71 0-37.5-16.79-37.5-37.5 0-6.36 1.59-12.34 4.38-17.59l33.12-61.4z" fill="#35b9ff"/><path d="m295.382 246.376c-11.524-8.291-25.143-12.673-39.382-12.673-13.526 0-26.578 3.988-37.745 11.532-3.433 2.319-4.335 6.981-2.017 10.413 2.318 3.433 6.98 4.335 10.413 2.017 8.678-5.863 18.826-8.962 29.349-8.962 11.076 0 21.665 3.405 30.622 9.849 1.326.954 2.856 1.413 4.374 1.413 2.331 0 4.629-1.084 6.094-3.121 2.419-3.363 1.654-8.05-1.708-10.468z"/><path d="m248.5 274.964c-4.143 0-7.5 3.357-7.5 7.5s3.357 7.5 7.5 7.5h15c4.143 0 7.5-3.357 7.5-7.5s-3.357-7.5-7.5-7.5z"/><path d="m362 181.2v-45c0-12.406-10.094-22.5-22.5-22.5s-22.5 10.094-22.5 22.5v45c0 12.406 10.094 22.5 22.5 22.5s22.5-10.094 22.5-22.5zm-30 0v-45c0-4.136 3.364-7.5 7.5-7.5s7.5 3.364 7.5 7.5v45c0 4.136-3.364 7.5-7.5 7.5s-7.5-3.364-7.5-7.5z"/><path d="m195 181.203v-45c0-12.406-10.094-22.5-22.5-22.5s-22.5 10.094-22.5 22.5v45c0 12.406 10.094 22.5 22.5 22.5s22.5-10.094 22.5-22.5zm-30 0v-45c0-4.136 3.364-7.5 7.5-7.5s7.5 3.364 7.5 7.5v45c0 4.136-3.364 7.5-7.5 7.5s-7.5-3.364-7.5-7.5z"/><path d="m294.5 305.199c0 24.813 20.187 45 45 45s45-20.187 45-45c0-7.35-1.819-14.652-5.263-21.119-.019-.036-33.136-61.44-33.136-61.44-1.31-2.427-3.845-3.939-6.602-3.939s-5.292 1.513-6.602 3.939l-33.136 61.44c-3.442 6.467-5.261 13.77-5.261 21.119zm18.484-14.034 26.516-49.165 26.506 49.145c2.318 4.362 3.494 9.091 3.494 14.055 0 16.542-13.458 30-30 30s-30-13.458-30-30c0-4.971 1.179-9.705 3.484-14.035z"/><path d="m437.02 74.98c-48.352-48.351-112.64-74.98-181.02-74.98-62.63 0-122.916 22.869-169.754 64.396-3.1 2.748-3.384 7.488-.637 10.588 2.748 3.1 7.488 3.384 10.588.637 44.091-39.093 100.844-60.621 159.803-60.621 132.888 0 241 108.112 241 241s-108.112 241-241 241-241-108.112-241-241c0-58.958 21.528-115.71 60.62-159.803 2.747-3.1 2.463-7.84-.637-10.588s-7.84-2.463-10.588.637c-41.526 46.839-64.395 107.125-64.395 169.754 0 68.38 26.629 132.668 74.98 181.02s112.64 74.98 181.02 74.98 132.668-26.629 181.02-74.98 74.98-112.64 74.98-181.02-26.629-132.668-74.98-181.02z"/></svg>