<?xml version="1.0" encoding="iso-8859-1"?>
<!-- Generator: Adobe Illustrator 19.0.0, SVG Export Plug-In . SVG Version: 6.00 Build 0)  -->
<svg version="1.1" id="Layer_1" xmlns="http://www.w3.org/2000/svg" xmlns:xlink="http://www.w3.org/1999/xlink" x="0px" y="0px"
	 viewBox="0 0 511.999 511.999" style="enable-background:new 0 0 511.999 511.999;" xml:space="preserve">
<polygon style="fill:#EEC1F1;" points="355.503,429.63 257.764,504.397 160.026,429.63 160.026,82.371 257.764,7.604 
	355.503,82.371 "/>
<rect x="222.958" y="139.467" style="opacity:0.2;fill:#D68CDB;enable-background:new    ;" width="69.622" height="233.066"/>
<polygon style="opacity:0.5;fill:#FFFFFF;enable-background:new    ;" points="160.026,429.63 222.955,372.536 222.955,139.465 
	160.026,82.371 "/>
<polygon style="opacity:0.22;fill:#BF29C8;enable-background:new    ;" points="355.503,429.63 292.574,372.536 292.574,139.465 
	355.503,82.371 "/>
<path d="M361.343,82.371c0-0.049-0.007-0.096-0.008-0.145c-0.003-0.187-0.015-0.372-0.032-0.558
	c-0.008-0.087-0.013-0.173-0.024-0.26c-0.029-0.23-0.07-0.459-0.121-0.686c-0.008-0.035-0.012-0.072-0.021-0.107
	c-0.065-0.273-0.144-0.542-0.239-0.809c-0.006-0.017-0.014-0.033-0.02-0.05c-0.086-0.236-0.186-0.469-0.297-0.699
	c-0.032-0.066-0.069-0.13-0.102-0.195c-0.09-0.173-0.186-0.345-0.291-0.513c-0.052-0.083-0.107-0.163-0.162-0.244
	c-0.096-0.142-0.197-0.281-0.304-0.418c-0.07-0.089-0.141-0.176-0.215-0.262c-0.047-0.054-0.086-0.112-0.135-0.164
	c-0.065-0.071-0.136-0.134-0.203-0.202c-0.077-0.079-0.153-0.158-0.234-0.233c-0.14-0.132-0.286-0.254-0.433-0.373
	c-0.049-0.04-0.091-0.084-0.141-0.122L260.62,1.565c-2.726-2.087-6.513-2.087-9.239,0l-97.607,74.666l0,0l-0.132,0.1
	c-0.047,0.035-0.086,0.077-0.132,0.114c-0.152,0.122-0.301,0.247-0.445,0.383c-0.079,0.075-0.155,0.152-0.231,0.23
	c-0.068,0.069-0.139,0.132-0.205,0.204c-0.048,0.053-0.088,0.111-0.135,0.164c-0.074,0.086-0.145,0.173-0.215,0.262
	c-0.107,0.137-0.208,0.276-0.304,0.418c-0.055,0.081-0.111,0.161-0.162,0.244c-0.105,0.168-0.201,0.34-0.291,0.513
	c-0.033,0.065-0.071,0.129-0.102,0.195c-0.112,0.229-0.211,0.462-0.297,0.699c-0.006,0.017-0.014,0.033-0.02,0.05
	c-0.095,0.266-0.175,0.535-0.239,0.809c-0.008,0.035-0.013,0.072-0.021,0.107c-0.051,0.227-0.091,0.456-0.121,0.686
	c-0.011,0.086-0.016,0.173-0.024,0.26c-0.017,0.186-0.029,0.371-0.032,0.558c-0.001,0.049-0.008,0.096-0.008,0.145v347.26
	c0,0.049,0.007,0.096,0.008,0.145c0.003,0.187,0.015,0.372,0.032,0.558c0.008,0.087,0.013,0.173,0.024,0.26
	c0.029,0.23,0.07,0.459,0.121,0.686c0.008,0.035,0.012,0.072,0.021,0.107c0.065,0.273,0.144,0.542,0.239,0.809
	c0.006,0.017,0.014,0.033,0.02,0.05c0.086,0.236,0.186,0.469,0.297,0.699c0.032,0.066,0.069,0.13,0.102,0.195
	c0.09,0.173,0.186,0.345,0.291,0.513c0.052,0.083,0.107,0.163,0.162,0.244c0.096,0.142,0.197,0.281,0.304,0.418
	c0.07,0.089,0.141,0.176,0.215,0.262c0.047,0.054,0.086,0.112,0.135,0.164c0.061,0.067,0.128,0.124,0.19,0.188
	c0.088,0.09,0.175,0.179,0.269,0.266c0.127,0.119,0.259,0.229,0.391,0.337c0.056,0.045,0.105,0.096,0.162,0.14l97.739,74.766
	c1.364,1.043,2.992,1.564,4.62,1.564c1.628,0,3.257-0.521,4.62-1.564l97.738-74.766c0.057-0.044,0.105-0.093,0.161-0.139
	c0.134-0.108,0.266-0.22,0.393-0.339c0.092-0.086,0.179-0.174,0.268-0.265c0.063-0.064,0.13-0.122,0.191-0.189
	c0.048-0.053,0.088-0.111,0.135-0.164c0.074-0.086,0.145-0.173,0.215-0.262c0.107-0.137,0.208-0.276,0.304-0.418
	c0.055-0.081,0.111-0.161,0.162-0.244c0.105-0.168,0.201-0.34,0.291-0.513c0.033-0.065,0.071-0.129,0.102-0.195
	c0.112-0.229,0.211-0.462,0.297-0.699c0.006-0.017,0.014-0.033,0.02-0.05c0.095-0.266,0.175-0.535,0.239-0.809
	c0.008-0.035,0.013-0.072,0.021-0.107c0.051-0.227,0.091-0.456,0.121-0.686c0.011-0.086,0.016-0.173,0.024-0.26
	c0.017-0.186,0.029-0.371,0.032-0.558c0.001-0.049,0.008-0.096,0.008-0.145L361.343,82.371L361.343,82.371z M298.413,369.168
	V142.833l47.721-43.296v312.927L298.413,369.168z M256,17.178l85.874,65.69l-54,48.993h-63.748l-54-48.993L256,17.178z
	 M283.205,147.069v217.864h-54.411V147.069H283.205z M213.587,142.833v226.334l-47.721,43.296V99.537L213.587,142.833z M256,494.823
	l-85.874-65.69l54-48.993h63.748l54,48.993L256,494.823z"/>
<g>
</g>
<g>
</g>
<g>
</g>
<g>
</g>
<g>
</g>
<g>
</g>
<g>
</g>
<g>
</g>
<g>
</g>
<g>
</g>
<g>
</g>
<g>
</g>
<g>
</g>
<g>
</g>
<g>
</g>
</svg>
