<?xml version="1.0" encoding="iso-8859-1"?>
<!-- Generator: Adobe Illustrator 19.0.0, SVG Export Plug-In . SVG Version: 6.00 Build 0)  -->
<svg version="1.1" id="Capa_1" xmlns="http://www.w3.org/2000/svg" xmlns:xlink="http://www.w3.org/1999/xlink" x="0px" y="0px"
	 viewBox="0 0 512 512" style="enable-background:new 0 0 512 512;" xml:space="preserve">
<rect x="144.56" y="125.296" style="fill:#33896A;" width="222.886" height="268.915"/>
<rect x="144.56" y="125.296" style="fill:#49BC6E;" width="58.322" height="268.915"/>
<rect x="202.882" y="125.296" style="fill:#40A077;" width="106.252" height="268.915"/>
<path style="fill:#49BC6E;" d="M309.13,125.292l-51.374-113.82c-1.153-0.254-2.349-0.254-3.504,0l-51.374,113.82H309.13z"/>
<path style="fill:#40A077;" d="M309.13,125.292h58.317L261.892,13.808c-1.16-1.225-2.609-2-4.135-2.336L309.13,125.292z"/>
<path style="fill:#69D189;" d="M250.119,13.808L144.563,125.292h58.318l51.373-113.82C252.727,11.807,251.279,12.583,250.119,13.808
	z"/>
<path style="fill:#33896A;" d="M202.88,394.211l51.451,106.71c1.104,0.232,2.245,0.232,3.349,0l51.451-106.71H202.88z"/>
<path style="fill:#2C7A62;" d="M261.702,498.76l105.746-104.549H309.13l-51.451,106.71
	C259.151,500.612,260.554,499.895,261.702,498.76z"/>
<path style="fill:#40A077;" d="M144.563,394.211l105.744,104.547c1.148,1.135,2.553,1.852,4.025,2.161l-51.451-106.71
	L144.563,394.211L144.563,394.211z"/>
<path d="M367.448,333.101c4.432,0,7.637-3.69,7.651-7.973c0.003-0.989,0-1.978,0-2.967c0-4.742,0-188.86,0-193.582
	c0-3.185,0.185-6.064-2.213-8.673c-2.172-2.363-4.417-4.665-6.624-6.996c-4.896-5.171-104.313-110.201-104.819-110.7
	c-3.295-3.251-8.243-2.765-11.312,0.457c-2.511,2.635-107.237,113.26-110.229,116.42c-1.24,1.31-2.367,2.623-2.787,4.473
	c-0.21,0.927-0.202,1.828-0.202,2.763c0,2.942,0,5.882,0,8.824c0,5.514,0,247.132,0,252.079c0,2.247-0.029,4.497,0,6.744
	c0.029,2.24,0.82,4.216,2.404,5.811c0.754,0.759,1.522,1.505,2.283,2.257c3.905,3.861,101.704,100.555,105.887,104.689
	c0.927,0.916,1.854,1.833,2.782,2.75c2.887,2.854,7.339,3.506,10.61,0.809c2.096-1.727,3.943-3.85,5.87-5.756
	c4.78-4.726,101.855-100.704,105.082-103.893c1.256-1.241,2.412-2.454,2.942-4.233c0.386-1.297,0.328-2.62,0.328-3.952
	c0-1.869,0-24.491,0-26.339c0-1.349,0.045-2.673-0.39-3.979c-1.125-3.382-4.555-5.571-8.095-5.188
	c-3.623,0.393-6.534,3.415-6.797,7.047c-0.254,3.521-0.02,22.413-0.02,22.413l-42.827,0.15l-0.189-253.611l42.895-0.005
	c0,0,0.121,185.146,0.121,189.762c0,0.838-0.004,1.677,0,2.517C359.817,329.474,363.082,333.101,367.448,333.101z M301.479,386.56
	h-90.948V187.052c0-4.226-3.426-7.651-7.651-7.651c-4.226,0-7.651,3.425-7.651,7.651v199.507h-43.015V132.943h43.015v13.305
	c0,4.226,3.426,7.651,7.651,7.651c4.226,0,7.651-3.425,7.651-7.651v-13.305h90.948V386.56z M214.727,117.641l41.277-91.453
	l41.277,91.453H214.727z M230.367,45.797l-32.427,71.844h-35.596L230.367,45.797z M198.075,401.861l10.178,21.111
	c1.835,3.807,6.409,5.404,10.215,3.57c3.806-1.835,5.404-6.408,3.569-10.214l-6.974-14.466h81.885l-40.942,84.915l-19.67-40.797
	c-1.835-3.807-6.408-5.403-10.215-3.57c-3.806,1.835-5.404,6.408-3.569,10.214l7.309,15.16l-66.678-65.924H198.075z
	 M282.149,467.786l31.785-65.924h34.892L282.149,467.786z M314.071,117.641l-32.428-71.844l68.024,71.844H314.071z"/>
<g>
</g>
<g>
</g>
<g>
</g>
<g>
</g>
<g>
</g>
<g>
</g>
<g>
</g>
<g>
</g>
<g>
</g>
<g>
</g>
<g>
</g>
<g>
</g>
<g>
</g>
<g>
</g>
<g>
</g>
</svg>
