<svg id="Layer_3" enable-background="new 0 0 64 64" height="512" viewBox="0 0 64 64" width="512" xmlns="http://www.w3.org/2000/svg"><g><path d="m16 19 8 38 6 5h4l6-5 8-38" fill="#ebf7fe"/><path d="m30 62-6-35h16l-6 35z" fill="#c7e2fc"/><path d="m48 19-16-17-16 17 8 8h16z" fill="#c7e2fc"/><path d="m24 27 8-25 8 25" fill="#a1cdfb"/><path d="m46.042 38-8.043 14 .001 6 4 4h6l14-8" fill="#c7e2fc"/><path d="m42.042 62 13-10-7-7-10 13z" fill="#a1cdfb"/><path d="m62.042 54-7-2-7-7-2-7h15.958v16z" fill="#ebf7fe"/><path d="m55.042 52 6.958-14-13.958 7z" fill="#c7e2fc"/><path d="m17.999 38 8.043 14-.001 6-4 4h-6l-14-8" fill="#c7e2fc"/><path d="m21.999 62-13-10 7-7 10 13z" fill="#a1cdfb"/><path d="m1.999 54 7-2 7-7 2-7h-15.958v16z" fill="#ebf7fe"/><path d="m8.999 52-6.958-14 13.958 7z" fill="#c7e2fc"/><path d="m62.945 37.936c-.005-.085-.023-.167-.05-.249-.012-.036-.019-.071-.035-.105-.046-.099-.106-.191-.184-.272-.005-.006-.008-.013-.014-.019-.085-.085-.184-.147-.289-.195-.033-.015-.068-.022-.103-.033-.081-.027-.163-.045-.248-.05-.022-.002-.041-.013-.064-.013h-15.96c-.357 0-.688.191-.866.501l-.074.129 3.879-18.425c.067-.32-.026-.653-.251-.891l-16-17c-.014-.015-.034-.02-.049-.033-.08-.075-.169-.136-.269-.182-.008-.003-.015-.009-.023-.012-.121-.052-.249-.088-.386-.088-.138 0-.267.037-.388.089-.007.003-.013.007-.02.01-.101.046-.191.107-.271.183-.015.014-.035.018-.049.033l-16 17c-.225.238-.318.571-.251.891l3.855 18.311-.007-.013c-.18-.31-.51-.503-.868-.503l-16-.042c-.001 0-.002 0-.003 0-.022 0-.042.011-.064.013-.082.005-.161.022-.24.048-.036.012-.072.019-.106.034-.103.046-.2.107-.284.189-.004.003-.009.005-.012.008-.005.005-.006.011-.011.016-.081.084-.142.179-.188.281-.015.033-.022.067-.034.102-.026.081-.044.161-.049.246-.001.022-.013.041-.013.063v16.042c0 .36.194.693.508.87l14.142 8c.15.085.32.13.492.13h5.858c.266 0 .521-.105.708-.293l2.876-2.876 3.803 2.958c.177.137.392.211.614.211h4c.223 0 .439-.074.615-.211l3.8-2.96 2.878 2.878c.187.188.442.293.708.293h6c.174 0 .345-.045.496-.131l14-8c.312-.178.504-.51.504-.869v-16c0-.023-.011-.042-.013-.064zm-6.516 13.432 4.529-9.112v10.406zm-6.744-6.095 10.044-5.037-5.007 10.074zm-3.998-4.724 1.211 4.24-7.942 10.324v-2.847zm1.637-1.549h10.408l-9.103 4.565zm-10.234 12.501c-.088.152-.134.324-.133.499l.001 6c0 .119.028.233.068.342l-1.646 1.282 5.51-32.142 5.396-5.396-4.456 21.163zm-11.947-23.501h13.628l-5.657 33h-2.313zm-7.792-9.022 12.308-13.076-6.154 19.231zm23.059 6.154-6.154-19.232 12.308 13.078zm-1.822.868h-13.26l6.63-20.719zm-20.958-3.913 5.396 5.396 5.51 32.145-1.648-1.281c.04-.108.068-.221.069-.339l.041-5.9c.002-.176-.044-.35-.131-.502l-4.793-8.406zm-10.104 29.282-4.569 1.305v-10.47zm1.707-1.059-5.04-10.108 10.079 5.07zm-3.04-11.341 10.44.027-1.305 4.568zm12.073 1.59 6.731 11.803-.019 2.724-7.92-10.296zm-13.738 13.746 4.219-1.205 10.27 7.9h-2.655zm17.343 6.367-11.401-8.77 5.389-5.389 8.77 11.4zm17.437-2.735 8.788-11.424 5.39 5.39-11.424 8.787zm8.384 3.063h-2.753l10.269-7.9 4.206 1.201z"/></g></svg>