<?xml version="1.0" encoding="iso-8859-1"?>
<!-- Generator: Adobe Illustrator 19.0.0, SVG Export Plug-In . SVG Version: 6.00 Build 0)  -->
<svg version="1.1" id="Capa_1" xmlns="http://www.w3.org/2000/svg" xmlns:xlink="http://www.w3.org/1999/xlink" x="0px" y="0px"
	 viewBox="0 0 480.013 480.013" style="enable-background:new 0 0 480.013 480.013;" xml:space="preserve">
<polygon style="fill:#00D3E1;" points="169.522,279.805 84.53,208.973 91.61,336.461 "/>
<polygon style="fill:#FFE4B6;" points="270.37,124.013 329.53,64.853 240.17,12.725 150.002,72.845 193.866,124.013 "/>
<polygon style="fill:#00D3E1;" points="431.906,203.101 349.002,265.285 383.57,341.341 "/>
<polygon style="fill:#FFE4B6;" points="76.754,213.237 14.106,317.661 83.714,338.549 "/>
<path style="fill:#FFC34C;" d="M416.026,133.685c4.392-9.552,12.12-17.272,21.672-21.672c-9.56-4.4-17.28-12.12-21.672-21.672
	c-4.392,9.552-12.12,17.272-21.672,21.672C403.906,116.413,411.634,124.133,416.026,133.685z"/>
<g>
	<polygon style="fill:#FFE4B6;" points="326.69,468.013 344.026,468.013 350.026,468.013 459.442,322.125 386.85,355.125 	"/>
	<polygon style="fill:#FFE4B6;" points="390.898,344.493 467.29,309.773 439.506,205.605 	"/>
</g>
<polygon style="fill:#00D3E1;" points="330.706,74.989 275.914,129.781 253.538,450.525 297.81,354.589 "/>
<path style="fill:#FFE4B6;" d="M148.994,83.949l14.424,180.352l2.528,2.104l12.64,10.536c0.464,0.384,0.824,0.872,1.064,1.408
	c0.08,0.168,0.064,0.368,0.12,0.544c0.12,0.368,0.256,0.728,0.256,1.12v188h31.712L188.13,129.605L148.994,83.949z"/>
<g>
	<polygon style="fill:#00D3E1;" points="138.802,468.013 172.026,468.013 172.026,287.869 92.842,345.453 	"/>
	<polygon style="fill:#00D3E1;" points="196.314,132.013 219.762,468.013 244.29,468.013 267.738,132.013 	"/>
	<polygon style="fill:#00D3E1;" points="343.994,273.613 305.354,357.349 305.346,357.381 254.282,468.013 317.626,468.013 
		379.57,351.869 	"/>
	<polygon style="fill:#00D3E1;" points="14.546,326.141 66.818,468.013 80.026,468.013 130.25,468.013 84.97,347.269 	"/>
</g>
<path style="fill:#FFC34C;" d="M48.026,69.685c4.392-9.552,12.12-17.272,21.672-21.672c-9.552-4.4-17.28-12.12-21.672-21.672
	c-4.392,9.552-12.12,17.272-21.672,21.672C35.906,52.413,43.634,60.133,48.026,69.685z"/>
<g>
	<path style="fill:#120536;" d="M479.754,309.949l-32-120c-0.68-2.568-2.6-4.624-5.112-5.504c-2.504-0.848-5.288-0.432-7.416,1.168
		l-96,72c-0.976,0.728-1.656,1.688-2.2,2.712c-0.064,0.128-0.208,0.2-0.272,0.328l-21.224,45.984l28.432-241.696
		c0.064-0.544,0-1.072-0.048-1.608c-0.008-0.12,0.048-0.232,0.032-0.352c-0.008-0.048-0.04-0.088-0.048-0.136
		c-0.16-1.064-0.552-2.048-1.104-2.96c-0.128-0.208-0.256-0.384-0.4-0.584c-0.632-0.864-1.384-1.656-2.352-2.216l-96-56
		c-2.648-1.536-5.92-1.432-8.472,0.256l-96,64c-0.856,0.576-1.528,1.328-2.096,2.152c-0.12,0.176-0.24,0.336-0.344,0.528
		c-0.488,0.848-0.84,1.76-0.992,2.736c-0.008,0.056-0.048,0.096-0.056,0.144c-0.016,0.12,0.04,0.24,0.024,0.36
		c-0.04,0.456-0.112,0.912-0.072,1.376l14.024,175.32L85.13,193.845c-1.8-1.496-4.16-2.12-6.456-1.744
		c-2.304,0.392-4.32,1.776-5.52,3.776l-72,120c-0.632,1.048-0.992,2.216-1.104,3.4c-0.032,0.392,0.128,0.776,0.152,1.176
		c0.048,0.776,0.024,1.56,0.296,2.312l52.056,141.248H32.026v16h32h16h96h72h96h8h32v-16h-16l110.4-147.2
		c0.12-0.16,0.128-0.368,0.24-0.536c0.432-0.672,0.744-1.384,0.96-2.152c0.088-0.312,0.2-0.584,0.248-0.904
		C480.034,312.149,480.05,311.053,479.754,309.949z M223.49,464.013l-22.88-328h62.848l-22.88,328H223.49z M308.978,359.053v-0.008
		l34.992-75.816l31.144,68.504l-59.888,112.28H260.53L308.978,359.053z M353.97,266.557l69.816-52.36l-40.728,116.368
		L353.97,266.557z M438.994,219.181l23.56,88.352l-64.792,29.448L438.994,219.181z M259.042,429.053l20.752-297.496l45.592-45.592
		l-31.472,267.528L259.042,429.053z M323.026,65.693l-54.312,54.32h-73.008l-39.728-46.352l84.336-56.216L323.026,65.693z
		 M154.45,272.453l8.56,7.136l-67.816,49.32l-6.16-110.968l65.408,54.504C154.442,272.445,154.442,272.445,154.45,272.453z
		 M73.482,226.469l5.92,106.608l-59.224-17.76L73.482,226.469z M168.026,295.725v168.288H141.57L97.65,346.901L168.026,295.725z
		 M69.602,464.013L21.074,332.277l60.856,18.256l42.552,113.48H80.026H69.602z M184.026,280.013c0-0.76-0.28-1.448-0.48-2.16
		c-0.112-0.384-0.096-0.8-0.256-1.168c-0.496-1.072-1.208-2.04-2.136-2.816l-13.872-11.56L153.97,95.893l30.272,35.312
		l23.208,332.808h-23.424V280.013z M344.026,464.013h-10.664l56.448-105.84l57.048-25.928l-98.832,131.768H344.026z"/>
	<path style="fill:#120536;" d="M8.026,56.013c17.648,0,32,14.352,32,32c0,4.424,3.584,8,8,8s8-3.576,8-8c0-17.648,14.352-32,32-32
		c4.416,0,8-3.576,8-8s-3.584-8-8-8c-17.648,0-32-14.352-32-32c0-4.424-3.584-8-8-8s-8,3.576-8,8c0,17.648-14.352,32-32,32
		c-4.416,0-8,3.576-8,8S3.61,56.013,8.026,56.013z M48.026,34.517c3.552,5.344,8.152,9.944,13.496,13.496
		c-5.344,3.552-9.944,8.152-13.496,13.496c-3.552-5.344-8.152-9.944-13.496-13.496C39.874,44.461,44.474,39.861,48.026,34.517z"/>
	<path style="fill:#120536;" d="M408.026,152.013c0,4.424,3.584,8,8,8s8-3.576,8-8c0-17.648,14.352-32,32-32c4.416,0,8-3.576,8-8
		s-3.584-8-8-8c-17.648,0-32-14.352-32-32c0-4.424-3.584-8-8-8s-8,3.576-8,8c0,17.648-14.352,32-32,32c-4.416,0-8,3.576-8,8
		c0,4.424,3.584,8,8,8C393.674,120.013,408.026,134.365,408.026,152.013z M416.026,98.517c3.552,5.344,8.152,9.936,13.496,13.496
		c-5.344,3.552-9.936,8.152-13.496,13.496c-3.552-5.344-8.152-9.936-13.496-13.496C407.874,108.461,412.474,103.861,416.026,98.517z
		"/>
	<rect x="400.026" y="464.013" style="fill:#120536;" width="16" height="16"/>
	<rect x="432.026" y="464.013" style="fill:#120536;" width="16" height="16"/>
</g>
<g>
</g>
<g>
</g>
<g>
</g>
<g>
</g>
<g>
</g>
<g>
</g>
<g>
</g>
<g>
</g>
<g>
</g>
<g>
</g>
<g>
</g>
<g>
</g>
<g>
</g>
<g>
</g>
<g>
</g>
</svg>
