<svg id="Capa_1" enable-background="new 0 0 512 512" height="512" viewBox="0 0 512 512" width="512" xmlns="http://www.w3.org/2000/svg"><g><g><path d="m383.055 356.385-128.796 97.843-128.795-97.843v-195.687l128.795-97.844 128.796 97.844z" fill="#c193dc"/><path d="m180.528 201.575 73.305-54.927 73.306 54.927v109.854l-71.139 54.927-73.274-53.28z" fill="#ffdcd4"/><g fill="#ffe7b1"><path d="m448.787 396.311 18.68 34.155 34.155 18.68-34.155 18.68-18.68 34.154-18.68-34.154-34.155-18.68 34.155-18.68z"/><path d="m63.213 10.02 18.68 34.154 34.155 18.68-34.155 18.68-18.68 34.155-18.68-34.155-34.155-18.68 34.155-18.68z"/></g></g><g><circle cx="383.055" cy="256.502" r="10"/><path d="m255.655 459.996c1.508-.277 2.958-.907 4.187-1.828l129.221-96.824c2.494-1.871 4.012-4.902 4.012-8.019v-51.617c0-5.534-4.486-10.02-10.02-10.02s-10.02 4.486-10.02 10.02v31.59l-35.877-26.882v-99.829l35.877-26.882v31.96c0 5.534 4.486 10.02 10.02 10.02s10.02-4.486 10.02-10.02v-51.987c0-3.179-1.58-6.271-4.161-8.131l-129.073-96.711c-3.511-2.631-8.506-2.631-12.017 0l-129.064 96.706c-2.586 1.859-4.168 4.954-4.168 8.136v193.648c0 3.115 1.516 6.15 4.012 8.019l129.221 96.824c2.222 1.664 5.103 2.331 7.83 1.827zm-121.024-280.29 35.877 26.882v99.828l-35.877 26.882zm192.508 9.349-63.286-47.42v-58.753l102.493 76.797zm-73.306 164.781-63.286-47.42v-99.828l63.286-47.42 63.286 47.42v99.829zm-10.019-212.201-63.286 47.42-39.206-29.377 102.492-76.796zm-63.287 182.315 63.286 47.42v58.753l-102.492-76.796zm83.326 47.419 63.286-47.419 39.206 29.377-102.493 76.796v-58.754z"/><path d="m506.43 440.355-31.58-17.272-17.272-31.58c-1.757-3.213-5.128-5.212-8.791-5.212-3.662 0-7.033 1.999-8.791 5.212l-17.272 31.58-31.58 17.272c-3.213 1.757-5.212 5.128-5.212 8.791 0 3.662 1.999 7.033 5.212 8.791l31.58 17.272 17.272 31.58c1.757 3.213 5.128 5.212 8.791 5.212 3.662 0 7.033-1.999 8.791-5.212l17.272-31.58 31.58-17.272c3.213-1.757 5.212-5.128 5.212-8.791-.001-3.663-1.999-7.033-5.212-8.791zm-43.771 18.68c-1.681.919-3.064 2.302-3.983 3.983l-9.889 18.081-9.889-18.081c-.919-1.681-2.302-3.064-3.983-3.983l-18.082-9.889 18.082-9.889c1.681-.919 3.064-2.301 3.983-3.983l9.889-18.081 9.889 18.081c.919 1.681 2.301 3.064 3.983 3.983l18.082 9.889z"/><path d="m126.068 62.854c0-3.662-1.999-7.033-5.212-8.791l-31.58-17.272-17.273-31.579c-1.757-3.213-5.128-5.212-8.79-5.212s-7.033 1.999-8.791 5.212l-17.272 31.58-31.58 17.272c-3.213 1.757-5.212 5.128-5.212 8.791s1.999 7.033 5.212 8.791l31.58 17.272 17.272 31.58c1.757 3.213 5.128 5.212 8.791 5.212s7.033-1.999 8.791-5.212l17.272-31.58 31.58-17.272c3.213-1.759 5.212-5.129 5.212-8.792zm-48.983 9.89c-1.681.919-3.064 2.301-3.983 3.983l-9.889 18.081-9.889-18.081c-.919-1.681-2.301-3.064-3.983-3.983l-18.082-9.889 18.082-9.889c1.682-.919 3.064-2.302 3.983-3.983l9.889-18.081 9.889 18.081c.919 1.682 2.302 3.064 3.983 3.983l18.082 9.889z"/></g></g></svg>