<svg id="Layer_1" enable-background="new 0 0 511.986 511.986" height="512" viewBox="0 0 511.986 511.986" width="512" xmlns="http://www.w3.org/2000/svg"><path d="m375.993 48.145h-240l-120 207.846 120 207.846h240l120-207.846z" fill="#8bc4ff"/><path d="m182.233 383.841c-48.353 83.819-46.1 80-46.24 80l-120-207.85h92.38c77.264 133.833 73.76 127.85 73.86 127.85z" fill="#74f7f9"/><path d="m182.233 128.141c-.1 0 3.606-6.334-73.86 127.85h-92.38l120-207.85c.14 0-2.108-3.81 46.24 80z" fill="#8dffff"/><path d="m375.903 48.141-46.15 80h-147.52l-46.15-80z" fill="#8dffff"/><path d="m495.993 255.991h-92.38l-73.81-127.85c-.1 0-2.246 3.807 46.1-80 .14 0-5.635-9.915 120.09 207.85z" fill="#74f7f9"/><path d="m495.993 255.991c-125.716 217.751-119.95 207.85-120.09 207.85-48.347-83.808-46.2-80-46.1-80l73.81-127.85z" fill="#68eaea"/><path d="m375.903 463.841h-239.82l46.15-80h147.52z" fill="#68eaea"/><path d="m403.613 255.991-73.81 127.85h-147.62l-73.81-127.85 73.81-127.85h147.62z" fill="#74f7f9"/><path d="m328.544 291.575c-41.802 72.407-146.74 72.722-188.718.009l-31.454-54.483 62.905-108.961h62.905c83.745.001 136.25 90.879 94.362 163.435z" fill="#8dffff"/><g fill="#8bc4ff"><path d="m375.993 463.991-.09-.15"/><path d="m136.083 48.141-.09-.15"/><path d="m136.083 463.841-.09.15"/><path d="m375.993 47.991-.09.15"/></g><path d="m509.953 263.797c2.808-5.015 2.645-11.074-.104-15.806-131.33-227.471-120.737-210.904-125.861-213.86-5.129-2.959 16.19-1.986-245.904-1.986-7.007-.929-13.678 2.795-16.604 9.136-127.596 221.003-119.917 207.357-120.7 209.766-1.338 4.126-.998 8.89 1.356 12.944 131.33 227.471 120.738 210.904 125.861 213.859 3.052 1.761 6.591 2.487 10.189 1.986 255.293 0 236.946.157 237.82.157 6.081 0 11.823-3.494 14.498-9.293 1.435-2.482 119.004-206.111 119.449-206.903zm-133.999 168.108-27.702-48.018 64.599-111.896h55.429zm-332.248-159.914h55.429l64.599 111.896-27.702 48.018zm92.326-191.914 27.702 48.018-64.599 111.896h-55.429zm184.533 287.763h-129.145l-64.573-111.85 64.573-111.85h129.145l64.573 111.85zm-.054-255.699h-129.037l-27.69-47.996h184.417zm-129.037 287.699h129.037l27.69 47.996h-184.417zm221.377-159.849-64.599-111.896 27.702-48.018 92.326 159.914z"/></svg>